<?xml version="1.0" encoding="iso-8859-1"?>
<!-- Generator: Adobe Illustrator 19.0.0, SVG Export Plug-In . SVG Version: 6.00 Build 0)  -->
<svg version="1.1" id="Layer_1" xmlns="http://www.w3.org/2000/svg" xmlns:xlink="http://www.w3.org/1999/xlink" x="0px" y="0px"
	 viewBox="0 0 512 512" style="enable-background:new 0 0 512 512;" xml:space="preserve">
<path style="fill:#D15D39;" d="M353.518,200.347h2.656h4.771h39.751c36.883,0,66.783,29.9,66.783,66.783l0,0
	c0,36.883-29.9,66.783-66.783,66.783h-11.13v54.017c0,13.197,10.699,23.896,23.896,23.896h1.652c6.417,0,11.619-5.202,11.619-11.619
	c0.017-0.126,0.033-0.252,0.051-0.376c2.609-18.726,18.872-32.526,37.778-32.526h9.244c21.094,0,38.195,17.101,38.195,38.196v6.325
	l0,0c0,55.325-44.849,100.174-100.174,100.174l0,0H256H100.174l0,0C44.849,511.999,0,467.15,0,411.825l0,0V405.5
	c0-21.095,17.101-38.196,38.196-38.196h9.244c18.906,0,35.169,13.801,37.778,32.526c0.018,0.126,0.035,0.25,0.051,0.376
	c0,6.417,5.202,11.619,11.619,11.619h1.652c13.197,0,23.896-10.699,23.896-23.896v-54.017h-11.13
	c-36.883,0-66.783-29.9-66.783-66.783l0,0c0-36.883,29.9-66.783,66.783-66.783h39.751h4.769h2.656H353.518z"/>
<path style="fill:#F77E41;" d="M512,405.5v6.325l0,0c0,55.325-44.849,100.174-100.174,100.174l0,0H256H100.174l0,0
	C44.849,511.999,0,467.15,0,411.825l0,0V405.5c0-21.095,17.101-38.196,38.196-38.196h9.244c18.906,0,35.169,13.801,37.778,32.526
	c0.018,0.126,0.035,0.25,0.051,0.376c0,6.417,5.202,11.619,11.619,11.619h1.652c0.276,0,0.544-0.032,0.817-0.041
	c0.27,0.02,0.541,0.041,0.817,0.041h77.913c6.147,0,11.13-4.983,11.13-11.13c0-6.147-4.983-11.13-11.13-11.13h-55.735
	c0.037-0.542,0.082-1.083,0.082-1.635v-54.017h-11.13c-36.883,0-66.783-29.9-66.783-66.783l0,0c0-36.883,29.9-66.783,66.783-66.783
	h39.751h4.771h2.656h195.036h2.656h4.771h39.751c36.883,0,66.783,29.9,66.783,66.783l0,0c0,36.883-29.9,66.783-66.783,66.783h-11.13
	v54.017c0,0.552,0.046,1.092,0.082,1.635h-55.735c-6.147,0-11.13,4.983-11.13,11.13c0,6.147,4.983,11.13,11.13,11.13h77.913
	c0.276,0,0.546-0.021,0.817-0.041c0.274,0.009,0.542,0.041,0.817,0.041h1.652c6.417,0,11.619-5.202,11.619-11.619
	c0.017-0.126,0.033-0.252,0.051-0.376c2.61-18.726,18.873-32.526,37.779-32.526h9.244C494.899,367.304,512,384.405,512,405.5z"/>
<path style="fill:#FF9B57;" d="M300.522,333.912c0,24.588-19.934,44.522-44.522,44.522l0,0c-24.588,0-44.522-19.933-44.522-44.522
	v-33.391h89.043V333.912z"/>
<path style="fill:#F7C592;" d="M178.087,300.521L178.087,300.521c0,18.442-14.949,33.391-33.391,33.391h-22.261h-11.13
	c-3.794,0-7.509-0.333-11.13-0.941V267.13h44.522C163.138,267.13,178.087,282.079,178.087,300.521z M367.304,267.13
	c-18.442,0-33.391,14.949-33.391,33.391l0,0c0,18.442,14.949,33.391,33.391,33.391h22.261h11.13c3.794,0,7.509-0.333,11.13-0.941
	V267.13H367.304z M379.904,135.036c0-2.187-0.058-4.362-0.17-6.521h0.17c10.804,0,19.564-8.759,19.564-19.564l0,0
	c0-10.804-8.76-19.564-19.564-19.564h-8.683C353.045,43.547,308.31,11.131,256,11.131s-97.045,32.416-115.221,78.256h-8.683
	c-10.804,0-19.564,8.759-19.564,19.564l0,0c0,10.804,8.76,19.564,19.564,19.564h0.17c-0.112,2.159-0.17,4.334-0.17,6.521
	c0,68.431,55.474,123.904,123.904,123.904S379.904,203.466,379.904,135.036z"/>
<path style="fill:#665A4B;" d="M241.53,111.305c0,6.147-4.983,11.13-11.13,11.13h-2.438c-6.147,0-11.13-4.983-11.13-11.13
	c0-6.147,4.983-11.13,11.13-11.13h2.438C236.547,100.174,241.53,105.157,241.53,111.305z M284.038,100.174H281.6
	c-6.147,0-11.13,4.983-11.13,11.13c0,6.147,4.983,11.13,11.13,11.13h2.438c6.147,0,11.13-4.983,11.13-11.13
	C295.168,105.157,290.185,100.174,284.038,100.174z"/>
<path style="fill:#DBA87B;" d="M302.6,198.144c-13.575,10.11-29.688,15.455-46.6,15.455s-33.026-5.344-46.6-15.455
	c-4.93-3.672-5.949-10.645-2.277-15.575c3.671-4.93,10.645-5.95,15.575-2.277c9.701,7.227,21.218,11.046,33.301,11.046
	c12.083,0,23.6-3.82,33.301-11.047c4.931-3.671,11.903-2.651,15.576,2.277C308.549,187.499,307.529,194.473,302.6,198.144z"/>
<path style="fill:#967A56;" d="M284.435,53.784c-1.898,1.266-4.043,1.871-6.164,1.871c-3.596,0-7.127-1.74-9.272-4.957
	l-22.261-33.391c-3.409-5.114-2.028-12.025,3.086-15.435c5.113-3.41,12.025-2.028,15.435,3.086l22.261,33.391
	C290.932,43.464,289.549,50.373,284.435,53.784z"/>
<g>
</g>
<g>
</g>
<g>
</g>
<g>
</g>
<g>
</g>
<g>
</g>
<g>
</g>
<g>
</g>
<g>
</g>
<g>
</g>
<g>
</g>
<g>
</g>
<g>
</g>
<g>
</g>
<g>
</g>
</svg>
